{
	"materials":[{
		"pbrMetallicRoughness":{
			"baseColorFactor":[1.0,
			1.0,
			1.0,
			1.0],
			"metallicFactor":1.0,
			"roughnessFactor":1.0
		},
		"emissiveFactor":[0.0,
		0.0,
		0.0],
		"alphaMode":"OPAQUE",
		"doubleSided":false,
		"name":"Fighter_Cockpit"
	},
	{
		"pbrMetallicRoughness":{
			"baseColorFactor":[0.0,
			0.0,
			0.0,
			0.41999995708465578],
			"metallicFactor":0.0,
			"roughnessFactor":0.5
		},
		"emissiveFactor":[0.0,
		0.0,
		0.0],
		"alphaMode":"BLEND",
		"doubleSided":false,
		"name":"Glass"
	},
	{
		"pbrMetallicRoughness":{
			"baseColorFactor":[1.0,
			1.0,
			1.0,
			1.0],
			"metallicFactor":0.0,
			"roughnessFactor":0.7500000024690674
		},
		"emissiveFactor":[0.0,
		0.0,
		0.0],
		"alphaMode":"OPAQUE",
		"doubleSided":false,
		"name":"HUD"
	},
	{
		"pbrMetallicRoughness":{
			"baseColorFactor":[1.0,
			1.0,
			1.0,
			1.0],
			"metallicFactor":1.0,
			"roughnessFactor":1.0
		},
		"emissiveFactor":[0.0,
		0.0,
		0.0],
		"alphaMode":"OPAQUE",
		"doubleSided":false,
		"name":"Fighter_Plugs"
	}],
	"asset":{
		"version":"2.0",
		"generator":"Created using the official Cinema 4D glTF Exporter 1.000x284978"
	},
	"scenes":[{
		"nodes":[0]
	}],
	"nodes":[{
		"name":"Polygon Reduction",
		"children":[1]
	},
	{
		"name":"Spaceship",
		"translation":[1.4210854715202005e-14,
		7.105427357601002e-15,
		0.0],
		"rotation":[-0.7071067690849304,
		0.0,
		0.0,
		-0.7071067690849304],
		"scale":[1.0,
		1.0,
		1.0],
		"children":[2,
		12,
		13]
	},
	{
		"name":"SF_Cockpit",
		"translation":[1.3370776708043764e-9,
		-0.15594878792762757,
		0.0061957091093063358],
		"rotation":[1.1102230246251566e-16,
		0.0,
		0.0,
		-1.0],
		"scale":[1.0,
		1.0,
		1.0],
		"mesh":0,
		"children":[3,
		5,
		6,
		7,
		9,
		10,
		11]
	},
	{
		"name":"SF_Cockpit_Open",
		"mesh":1,
		"children":[4]
	},
	{
		"name":"SF_Cockpit-Glass",
		"translation":[1.5063505820237206e-15,
		-0.2067350596189499,
		-0.11320565640926361],
		"rotation":[0.0,
		0.0,
		0.0,
		-1.0],
		"scale":[1.0,
		1.0,
		1.0],
		"mesh":2
	},
	{
		"name":"SF_Cockpit-HUD",
		"translation":[-0.0015584510983899236,
		-0.30167651176452639,
		-0.08461426943540573],
		"rotation":[0.0,
		0.0,
		0.0,
		-1.0],
		"scale":[1.0688482522964478,
		1.0688482522964478,
		1.0688482522964478],
		"mesh":3
	},
	{
		"name":"SF_Cockpit_Joystick",
		"mesh":4
	},
	{
		"name":"SF_Cockpit-LandingGear-01",
		"mesh":5,
		"children":[8]
	},
	{
		"name":"SF_Cockpit-LandingGear-02",
		"mesh":6
	},
	{
		"name":"LandingGear-Door-R",
		"translation":[0.02671068347990513,
		0.002908348571509123,
		0.08123738318681717],
		"rotation":[-0.04142319783568382,
		0.38043490052223208,
		2.0294033120649148e-9,
		-0.9238795638084412],
		"scale":[1.0,
		1.0,
		1.0],
		"mesh":7
	},
	{
		"name":"LandingGear-Door-L",
		"translation":[-0.026628952473402025,
		0.002884303219616413,
		0.08113574236631394],
		"rotation":[-0.04120916128158569,
		-0.38045817613601687,
		1.040627317649978e-8,
		-0.9238795042037964],
		"scale":[1.0,
		1.0,
		1.0],
		"mesh":8
	},
	{
		"name":"LandingGear-Back",
		"mesh":9
	},
	{
		"name":"Plug-A_Front",
		"translation":[-6.685366704672902e-10,
		0.04200218245387077,
		-0.0030978545546531679],
		"rotation":[1.1102230246251566e-16,
		0.0,
		0.0,
		-1.0],
		"scale":[1.0,
		1.0,
		1.0],
		"mesh":10
	},
	{
		"name":"Plug-A_Back",
		"translation":[-6.685372810899537e-10,
		0.11394660919904709,
		-0.0030978545546531679],
		"rotation":[1.1102230246251566e-16,
		0.0,
		0.0,
		-1.0],
		"scale":[1.0,
		1.0,
		1.0],
		"mesh":11
	}],
	"meshes":[{
		"name":"SF_Cockpit",
		"primitives":[{
			"attributes":{
				"POSITION":1
			},
			"indices":0,
			"material":0
		}]
	},
	{
		"name":"SF_Cockpit_Open",
		"primitives":[{
			"attributes":{
				"POSITION":3
			},
			"indices":2,
			"material":0
		}]
	},
	{
		"name":"SF_Cockpit-Glass",
		"primitives":[{
			"attributes":{
				"POSITION":5
			},
			"indices":4,
			"material":1
		}]
	},
	{
		"name":"SF_Cockpit-HUD",
		"primitives":[{
			"attributes":{
				"POSITION":7
			},
			"indices":6,
			"material":2
		}]
	},
	{
		"name":"SF_Cockpit_Joystick",
		"primitives":[{
			"attributes":{
				"POSITION":9
			},
			"indices":8,
			"material":0
		}]
	},
	{
		"name":"SF_Cockpit-LandingGear-01",
		"primitives":[{
			"attributes":{
				"POSITION":11
			},
			"indices":10,
			"material":0
		}]
	},
	{
		"name":"SF_Cockpit-LandingGear-02",
		"primitives":[{
			"attributes":{
				"POSITION":13
			},
			"indices":12,
			"material":0
		}]
	},
	{
		"name":"LandingGear-Door-R",
		"primitives":[{
			"attributes":{
				"POSITION":15
			},
			"indices":14,
			"material":0
		}]
	},
	{
		"name":"LandingGear-Door-L",
		"primitives":[{
			"attributes":{
				"POSITION":17
			},
			"indices":16,
			"material":0
		}]
	},
	{
		"name":"LandingGear-Back",
		"primitives":[{
			"attributes":{
				"POSITION":19
			},
			"indices":18,
			"material":0
		}]
	},
	{
		"name":"Plug-A_Front",
		"primitives":[{
			"attributes":{
				"POSITION":21
			},
			"indices":20,
			"material":3
		}]
	},
	{
		"name":"Plug-A_Back",
		"primitives":[{
			"attributes":{
				"POSITION":23
			},
			"indices":22,
			"material":3
		}]
	}],
	"accessors":[{
		"type":"SCALAR",
		"bufferView":0,
		"componentType":5123,
		"count":6129,
		"byteOffset":0,
		"min":[0],
		"max":[1784]
	},
	{
		"type":"VEC3",
		"bufferView":1,
		"componentType":5126,
		"count":1785,
		"byteOffset":0,
		"min":[-0.1626734882593155,
		-0.4966924786567688,
		-0.15515866875648499],
		"max":[0.1626734882593155,
		0.49563249945640566,
		0.11844246834516525]
	},
	{
		"type":"SCALAR",
		"bufferView":2,
		"componentType":5123,
		"count":180,
		"byteOffset":0,
		"min":[0],
		"max":[33]
	},
	{
		"type":"VEC3",
		"bufferView":3,
		"componentType":5126,
		"count":34,
		"byteOffset":0,
		"min":[-0.054057322442531589,
		-0.37722739577293398,
		-0.16145937144756318],
		"max":[0.0533086359500885,
		-0.0006458130083046854,
		-0.05962470918893814]
	},
	{
		"type":"SCALAR",
		"bufferView":4,
		"componentType":5123,
		"count":213,
		"byteOffset":0,
		"min":[0],
		"max":[72]
	},
	{
		"type":"VEC3",
		"bufferView":5,
		"componentType":5126,
		"count":73,
		"byteOffset":0,
		"min":[-0.053561244159936908,
		-0.1653059720993042,
		-0.04713287204504013],
		"max":[0.053561244159936908,
		0.16562087833881379,
		0.047523383051157]
	},
	{
		"type":"SCALAR",
		"bufferView":6,
		"componentType":5123,
		"count":114,
		"byteOffset":0,
		"min":[0],
		"max":[51]
	},
	{
		"type":"VEC3",
		"bufferView":7,
		"componentType":5126,
		"count":52,
		"byteOffset":0,
		"min":[-0.028725048527121545,
		0.03409109637141228,
		-0.005289372522383928],
		"max":[0.031641166657209399,
		0.08627491444349289,
		0.02420572005212307]
	},
	{
		"type":"SCALAR",
		"bufferView":8,
		"componentType":5123,
		"count":138,
		"byteOffset":0,
		"min":[0],
		"max":[48]
	},
	{
		"type":"VEC3",
		"bufferView":9,
		"componentType":5126,
		"count":49,
		"byteOffset":0,
		"min":[-0.0014540835982188583,
		-0.22773541510105134,
		-0.08099135756492615],
		"max":[0.0014540835982188583,
		-0.22105282545089723,
		-0.06888717412948609]
	},
	{
		"type":"SCALAR",
		"bufferView":10,
		"componentType":5123,
		"count":312,
		"byteOffset":0,
		"min":[0],
		"max":[83]
	},
	{
		"type":"VEC3",
		"bufferView":11,
		"componentType":5126,
		"count":84,
		"byteOffset":0,
		"min":[-0.016017023473978044,
		-0.3706206679344177,
		0.03905785456299782],
		"max":[0.016017023473978044,
		-0.2596692442893982,
		0.14391487836837769]
	},
	{
		"type":"SCALAR",
		"bufferView":12,
		"componentType":5123,
		"count":504,
		"byteOffset":0,
		"min":[0],
		"max":[169]
	},
	{
		"type":"VEC3",
		"bufferView":13,
		"componentType":5126,
		"count":170,
		"byteOffset":0,
		"min":[-0.03624438866972923,
		-0.32718974351882937,
		0.133886456489563],
		"max":[0.03624438866972923,
		-0.21089290082454682,
		0.1612876057624817]
	},
	{
		"type":"SCALAR",
		"bufferView":14,
		"componentType":5123,
		"count":66,
		"byteOffset":0,
		"min":[0],
		"max":[14]
	},
	{
		"type":"VEC3",
		"bufferView":15,
		"componentType":5126,
		"count":15,
		"byteOffset":0,
		"min":[-0.06666051596403122,
		-0.3467906415462494,
		0.06860371679067612],
		"max":[-0.012305403128266335,
		-0.13073986768722535,
		0.09528015553951264]
	},
	{
		"type":"SCALAR",
		"bufferView":16,
		"componentType":5123,
		"count":66,
		"byteOffset":0,
		"min":[0],
		"max":[14]
	},
	{
		"type":"VEC3",
		"bufferView":17,
		"componentType":5126,
		"count":15,
		"byteOffset":0,
		"min":[0.012305403128266335,
		-0.3467906415462494,
		0.06860371679067612],
		"max":[0.06695855408906937,
		-0.13073986768722535,
		0.09528015553951264]
	},
	{
		"type":"SCALAR",
		"bufferView":18,
		"componentType":5123,
		"count":1164,
		"byteOffset":0,
		"min":[0],
		"max":[349]
	},
	{
		"type":"VEC3",
		"bufferView":19,
		"componentType":5126,
		"count":350,
		"byteOffset":0,
		"min":[-0.1153084859251976,
		0.1712268739938736,
		0.08408045023679733],
		"max":[0.1153084859251976,
		0.4074857532978058,
		0.16255110502243043]
	},
	{
		"type":"SCALAR",
		"bufferView":20,
		"componentType":5123,
		"count":204,
		"byteOffset":0,
		"min":[0],
		"max":[47]
	},
	{
		"type":"VEC3",
		"bufferView":21,
		"componentType":5126,
		"count":48,
		"byteOffset":0,
		"min":[-0.14846518635749818,
		-0.7166081070899963,
		-0.05482384189963341],
		"max":[0.14846518635749818,
		-0.3794576823711395,
		0.07767342776060105]
	},
	{
		"type":"SCALAR",
		"bufferView":22,
		"componentType":5123,
		"count":7992,
		"byteOffset":0,
		"min":[0],
		"max":[2040]
	},
	{
		"type":"VEC3",
		"bufferView":23,
		"componentType":5126,
		"count":2041,
		"byteOffset":0,
		"min":[-0.5532617568969727,
		-0.3431766927242279,
		-0.2368352860212326],
		"max":[0.5532617568969727,
		0.3814375102519989,
		0.13643275201320649]
	}],
	"bufferViews":[{
		"buffer":0,
		"byteOffset":0,
		"byteLength":12258,
		"target":34963
	},
	{
		"buffer":0,
		"byteOffset":12260,
		"byteLength":21420,
		"target":34962
	},
	{
		"buffer":1,
		"byteOffset":0,
		"byteLength":360,
		"target":34963
	},
	{
		"buffer":1,
		"byteOffset":360,
		"byteLength":408,
		"target":34962
	},
	{
		"buffer":2,
		"byteOffset":0,
		"byteLength":426,
		"target":34963
	},
	{
		"buffer":2,
		"byteOffset":428,
		"byteLength":876,
		"target":34962
	},
	{
		"buffer":3,
		"byteOffset":0,
		"byteLength":228,
		"target":34963
	},
	{
		"buffer":3,
		"byteOffset":228,
		"byteLength":624,
		"target":34962
	},
	{
		"buffer":4,
		"byteOffset":0,
		"byteLength":276,
		"target":34963
	},
	{
		"buffer":4,
		"byteOffset":276,
		"byteLength":588,
		"target":34962
	},
	{
		"buffer":5,
		"byteOffset":0,
		"byteLength":624,
		"target":34963
	},
	{
		"buffer":5,
		"byteOffset":624,
		"byteLength":1008,
		"target":34962
	},
	{
		"buffer":6,
		"byteOffset":0,
		"byteLength":1008,
		"target":34963
	},
	{
		"buffer":6,
		"byteOffset":1008,
		"byteLength":2040,
		"target":34962
	},
	{
		"buffer":7,
		"byteOffset":0,
		"byteLength":132,
		"target":34963
	},
	{
		"buffer":7,
		"byteOffset":132,
		"byteLength":180,
		"target":34962
	},
	{
		"buffer":8,
		"byteOffset":0,
		"byteLength":132,
		"target":34963
	},
	{
		"buffer":8,
		"byteOffset":132,
		"byteLength":180,
		"target":34962
	},
	{
		"buffer":9,
		"byteOffset":0,
		"byteLength":2328,
		"target":34963
	},
	{
		"buffer":9,
		"byteOffset":2328,
		"byteLength":4200,
		"target":34962
	},
	{
		"buffer":10,
		"byteOffset":0,
		"byteLength":408,
		"target":34963
	},
	{
		"buffer":10,
		"byteOffset":408,
		"byteLength":576,
		"target":34962
	},
	{
		"buffer":11,
		"byteOffset":0,
		"byteLength":15984,
		"target":34963
	},
	{
		"buffer":11,
		"byteOffset":15984,
		"byteLength":24492,
		"target":34962
	}],
	"buffers":[{
		"uri":"data:application/octet-stream;base64,",
		"byteLength":33680
	},
	{
		"uri":"data:application/octet-stream;base64,",
		"byteLength":768
	},
	{
		"uri":"data:application/octet-stream;base64,",
		"byteLength":1304
	},
	{
		"uri":"data:application/octet-stream;base64,",
		"byteLength":852
	},
	{
		"uri":"data:application/octet-stream;base64,",
		"byteLength":864
	},
	{
		"uri":"data:application/octet-stream;base64,",
		"byteLength":1632
	},
	{
		"uri":"data:application/octet-stream;base64,",
		"byteLength":3048
	},
	{
		"uri":"data:application/octet-stream;base64,",
		"byteLength":312
	},
	{
		"uri":"data:application/octet-stream;base64,",
		"byteLength":312
	},
	{
		"uri":"data:application/octet-stream;base64,",
		"byteLength":6528
	},
	{
		"uri":"data:application/octet-stream;base64,",
		"byteLength":984
	},
	{
		"uri":"data:application/octet-stream;base64,",
		"byteLength":40476
	}]
}