{
	"materials":[{
		"pbrMetallicRoughness":{
			"baseColorFactor":[1.0,
			1.0,
			1.0,
			1.0],
			"metallicFactor":1.0,
			"roughnessFactor":1.0
		},
		"emissiveFactor":[0.0,
		0.0,
		0.0],
		"alphaMode":"OPAQUE",
		"doubleSided":false,
		"name":"Spacecraft_Carrier"
	}],
	"asset":{
		"version":"2.0",
		"generator":"Created using the official Cinema 4D glTF Exporter 1.000x284978"
	},
	"scenes":[{
		"nodes":[0]
	}],
	"nodes":[{
		"name":"Polygon Reduction",
		"children":[1]
	},
	{
		"name":"Carrier VX-8",
		"mesh":0
	}],
	"meshes":[{
		"name":"Carrier VX-8",
		"primitives":[{
			"attributes":{
				"POSITION":1
			},
			"indices":0,
			"material":0
		}]
	}],
	"accessors":[{
		"type":"SCALAR",
		"bufferView":0,
		"componentType":5123,
		"count":80793,
		"byteOffset":0,
		"min":[0],
		"max":[22993]
	},
	{
		"type":"VEC3",
		"bufferView":1,
		"componentType":5126,
		"count":22994,
		"byteOffset":0,
		"min":[-4.530647277832031,
		-1.618812084197998,
		-10.377435684204102],
		"max":[3.65268611907959,
		1.8652321100234986,
		5.6449875831604]
	}],
	"bufferViews":[{
		"buffer":0,
		"byteOffset":0,
		"byteLength":161586,
		"target":34963
	},
	{
		"buffer":0,
		"byteOffset":161588,
		"byteLength":275928,
		"target":34962
	}],
	"buffers":[{
		"uri":"data:application/octet-stream;base64,",
		"byteLength":437516
	}]
}